<svg width="512" height="512" viewBox="0 0 512 512" fill="none" xmlns="http://www.w3.org/2000/svg">
<mask id="mask0" mask-type="alpha" maskUnits="userSpaceOnUse" x="0" y="0" width="512" height="512">
<rect width="512" height="512" fill="white"/>
</mask>
<g mask="url(#mask0)">
<rect width="512" height="512" rx="256" fill="#01579B"/>
<path d="M175.35 165.696C189.775 135.115 233.28 135.115 247.705 165.696L315.294 308.984C325.412 330.435 309.763 355.119 286.046 355.119C273.726 355.119 262.476 348.119 257.034 337.066L229.47 281.092C222.14 266.205 200.915 266.205 193.585 281.092L166.022 337.066C160.579 348.119 149.33 355.119 137.01 355.119C113.292 355.119 97.6434 330.435 107.762 308.984L175.35 165.696Z" fill="white"/>
<rect x="268.132" y="160.186" width="64.549" height="229.075" rx="32.2745" transform="rotate(-26.053 268.132 160.186)" fill="white"/>
<g filter="url(#filter0_i)">
<rect x="316.293" y="258.696" width="64.549" height="119.426" rx="32.2745" transform="rotate(-26.053 316.293 258.696)" fill="#FCB108"/>
</g>
</g>
<defs>
<filter id="filter0_i" x="327.181" y="241.234" width="88.6655" height="117.864" filterUnits="userSpaceOnUse" color-interpolation-filters="sRGB">
<feFlood flood-opacity="0" result="BackgroundImageFix"/>
<feBlend mode="normal" in="SourceGraphic" in2="BackgroundImageFix" result="shape"/>
<feColorMatrix in="SourceAlpha" type="matrix" values="0 0 0 0 0 0 0 0 0 0 0 0 0 0 0 0 0 0 127 0" result="hardAlpha"/>
<feOffset dy="4"/>
<feGaussianBlur stdDeviation="2"/>
<feComposite in2="hardAlpha" operator="arithmetic" k2="-1" k3="1"/>
<feColorMatrix type="matrix" values="0 0 0 0 0 0 0 0 0 0 0 0 0 0 0 0 0 0 0.25 0"/>
<feBlend mode="normal" in2="shape" result="effect1_innerShadow"/>
</filter>
</defs>
</svg>
